<svg width="42" height="42" viewBox="0 0 42 42" fill="none" xmlns="http://www.w3.org/2000/svg">
<circle cx="21" cy="21" r="21" fill="#E2DE76"/>
<path d="M34 20.3458C34 17.9461 32.7024 15.7314 30.6148 14.5667C29.7822 14.1042 28.8561 13.8412 27.9076 13.7738C27.7289 13.6093 27.54 13.4543 27.3411 13.3172C26.1997 12.5287 24.8513 12.3385 23.5943 12.6537L23.117 11.5107L23.7728 9.93782L21.7849 11.1815C21.6977 10.9768 21.5352 10.8133 21.3295 10.7271L22.5709 8.73785L21.0011 9.39387L19.4287 8.73785L20.6706 10.7271C20.4664 10.8133 20.3025 10.9768 20.2153 11.1815L18.227 9.93801L18.8809 11.5109L18.4057 12.6527C17.1466 12.3375 15.7982 12.528 14.6583 13.3184C14.4681 13.4493 14.2904 13.5982 14.1186 13.753C13.1027 13.7747 12.1036 14.0526 11.2146 14.5746C9.23115 15.7422 8 17.9526 8 20.3458C8 21.0332 8.10205 21.7127 8.28979 22.3177C8.51776 23.4021 9.14162 24.5312 9.95764 25.6423V29.2622H32.0323V25.5244C32.8324 24.4725 33.4416 23.4043 33.665 22.3809C33.8904 21.7208 34 21.0353 34 20.3458ZM26.6629 14.2996C28.0297 15.25 28.8824 17.0746 28.8824 19.0644C28.8824 19.6471 28.8093 20.2187 28.655 20.8118C28.403 22.2393 27.4549 23.8082 26.2973 25.2774H25.9012C27.0973 23.7817 28.1148 22.1512 28.3747 20.6889C28.5129 20.1691 28.5819 19.6228 28.5819 19.0642C28.5819 17.1715 27.7797 15.4391 26.4941 14.5436C25.9276 14.1537 25.3203 13.9561 24.6887 13.9561C23.6266 13.9561 22.6173 14.5522 21.8802 15.5722C21.7928 15.5208 21.7096 15.4503 21.6201 15.4149C22.8957 13.6478 25.0159 13.159 26.6629 14.2996ZM25.1356 25.2787H23.505C23.8379 24.2592 24.0431 23.0163 24.0431 21.6272C24.0431 19.0452 23.3688 16.9356 22.3535 15.9318C23.3426 14.5586 24.9021 14.1706 26.1573 15.0357C27.2862 15.8217 27.9869 17.3646 27.9869 19.0644C27.9869 19.5722 27.9261 20.0676 27.7961 20.5609C27.5281 22.0537 26.409 23.7474 25.1356 25.2787ZM21.787 11.841L23.2288 12.7432C22.8002 12.8869 22.3941 13.1102 22.0083 13.3752L21.3336 12.295C21.5373 12.2085 21.6996 12.0447 21.787 11.841ZM21.003 16.4873C21.7543 16.4873 22.8449 18.4897 22.8449 21.6272C22.8449 23.1422 22.589 24.383 22.2416 25.2735L22.2863 25.2776H19.115L19.7441 25.2196C19.4071 24.3331 19.1597 23.1147 19.1597 21.6251C19.1607 18.4906 20.2511 16.4873 21.003 16.4873ZM18.4972 25.2787H16.8649C15.5976 23.7637 14.4925 22.0922 14.2345 20.6364C14.0866 20.0716 14.0214 19.5724 14.0214 19.0665C14.0214 17.3658 14.7261 15.8219 15.8596 15.0359C17.106 14.1689 18.6656 14.5578 19.6607 15.9309C18.6427 16.9321 17.9671 19.043 17.9671 21.6272C17.965 23.0124 18.1625 24.2592 18.4972 25.2787ZM20.2191 11.841C20.3044 12.0447 20.4683 12.2085 20.6726 12.2958L19.9998 13.375C19.6139 13.1091 19.2073 12.8877 18.7789 12.744L20.2191 11.841ZM15.3438 14.2996C15.9492 13.8808 16.631 13.659 17.3153 13.659C18.481 13.659 19.5862 14.3058 20.3859 15.4141C20.2938 15.4497 20.2133 15.5183 20.128 15.5695C19.3863 14.5515 18.376 13.9565 17.3155 13.9565C16.6824 13.9565 16.0772 14.1539 15.5167 14.544C14.2259 15.4405 13.4222 17.1726 13.4222 19.0646C13.4222 19.623 13.4948 20.1681 13.648 20.7621C13.9014 22.1899 14.9113 23.7963 16.0988 25.2776H15.7171C14.5555 23.798 13.5991 22.2122 13.343 20.765C13.1969 20.2097 13.1237 19.6371 13.1237 19.0644C13.1235 17.0767 13.9746 15.2512 15.3438 14.2996ZM9.19958 20.3458C9.19958 18.3741 10.2074 16.5569 11.8238 15.6036C12.1995 15.384 12.5977 15.2177 13.0113 15.1054C12.3227 16.2315 11.9268 17.6155 11.9268 19.0646C11.9268 19.7408 12.0142 20.413 12.1731 21.0201C12.4188 22.4113 13.2194 23.8775 14.2257 25.2776H11.1959C10.3375 24.1779 9.6719 23.0652 9.45258 22.0193C9.28488 21.478 9.19958 20.9135 9.19958 20.3458ZM16.3606 28.0171H13.1582V26.8241H16.3606V28.0171V28.0171ZM22.6034 28.0171H19.4029V26.8241H22.6034V28.0171V28.0171ZM28.8461 28.0171H25.6455V26.8241H28.8461V28.0171ZM32.5257 22.0689C32.2983 23.0916 31.6118 24.1931 30.7144 25.2787H27.7899C28.785 23.8926 29.581 22.4417 29.8246 21.0698C29.9911 20.424 30.0766 19.748 30.0766 19.0665C30.0766 17.6511 29.701 16.3046 29.045 15.194C29.3821 15.3011 29.7162 15.4331 30.032 15.6113C31.7439 16.5648 32.806 18.3803 32.806 20.346C32.806 20.9106 32.7145 21.4711 32.5257 22.0689Z" fill="black"/>
</svg>
